<svg clip-rule="evenodd" fill-rule="evenodd" stroke-linejoin="round" stroke-miterlimit="2" viewBox="0 0 560 400" xmlns="http://www.w3.org/2000/svg"><g fill-rule="nonzero" transform="matrix(1.09969 0 0 1.09969 -50.0572 -47.8694)"><path d="m72.8 250.9h8.5v8.6h-8.5z" fill="#e52421"/><path d="m132.4 191.3v68.2h-8.5v-68.2zm-17 0v68.2h-8.5v-68.2zm34.1 27.7v12.8h-8.5v-12.8zm-51.2-27.7v68.2h-8.5v-68.2zm-17 0v59.7h-8.5v-59.7z" fill="#ffcc03"/><path d="m478.2 214.3c2.2 0 4.4.2 6.5.6 1.5.3 3 .8 4.4 1.4l-1.5 5.1c-1.2-.6-2.4-1.1-3.7-1.5-1.8-.6-3.7-.9-5.5-.8-2-.1-3.9.3-5.7 1.1-1.5.8-2.3 2.3-2.1 4 0 .8.2 1.6.7 2.2s1.1 1.2 1.8 1.6c.8.5 1.7.9 2.6 1.2l3.1.9 4.2 1.4c1.3.5 2.6 1.2 3.8 2 2.5 1.8 3.9 4.7 3.7 7.7.1 1.8-.3 3.6-1.2 5.1-.8 1.4-1.9 2.5-3.2 3.4-1.4.9-2.9 1.6-4.5 2-1.8.2-3.6.3-5.4.1-1.6.1-3.1.1-4.7 0-1.2-.2-2.3-.4-3.5-.7-.9-.2-1.8-.5-2.7-.9-.7-.3-1.4-.7-2.1-1.1l2-5.1c.5.4.9.7 1.5 1 .8.4 1.5.8 2.4 1.1 1 .4 2.1.7 3.2.9 1.3.2 2.6.4 3.9.4 2.1.1 4.2-.4 6-1.5 1.3-1 2.1-2.6 2-4.3.1-1.4-.6-2.8-1.7-3.7-1.8-1.2-3.7-2.1-5.8-2.6l-4.5-1.5c-1.4-.5-2.6-1.1-3.8-2-1.1-.8-2-1.8-2.7-3-.7-1.4-1.1-3-1-4.5-.2-3 1.2-5.8 3.6-7.6 3-1.7 6.4-2.6 9.9-2.4zm-46 .5v24.4c0 1.2.1 2.4.5 3.6.3.9.8 1.7 1.5 2.3.6.6 1.4 1 2.2 1.2.9.2 1.8.4 2.7.4 2.4.1 4.7-.6 6.6-2 1.8-1.4 3.3-3.1 4.3-5.1v-24.8h6.2v36h-5.5l-.6-6.5c-1 2.2-2.7 4-4.8 5.4-2.4 1.5-5.2 2.2-8.1 2.1-3.1.1-6-1-8.3-3.1-2.3-2.6-3.4-6-3.1-9.5v-24.4zm-216.5-13.6c2.2.6 4.3 1.4 6.3 2.4l-1.9 5.8c-1.8-1.2-3.7-2.1-5.7-2.9-2.4-.8-4.9-1.2-7.5-1.1-4.7 0-9.2 1.9-12.3 5.5-1.7 1.9-2.9 4.1-3.8 6.5-1 2.9-1.5 5.9-1.4 8.9 0 2.9.4 5.9 1.3 8.7.8 2.4 2 4.5 3.6 6.4 1.5 1.7 3.4 3.1 5.5 4 2.3.9 4.7 1.4 7.2 1.4 2.3 0 4.5-.3 6.6-1 2-.7 4-1.6 5.9-2.7l1.8 4.4c-1.8 1.3-3.7 2.3-5.9 3-2.8 1-5.8 1.4-8.8 1.4-3.4 0-6.7-.5-9.8-1.7-2.9-1.2-5.6-2.9-7.7-5.1-2.3-2.3-4.1-5-5.2-8-2.5-7-2.5-14.7 0-21.7 2.3-6.1 7.3-10.9 13.5-13.2 3.2-1.2 6.6-1.8 10.1-1.7 2.8-.3 5.5 0 8.2.7zm63.5 12.9c2 0 4 .2 5.9.7 1.6.3 3 1 4.4 1.8l-2 5.4c-1.3-1-2.7-1.8-4.1-2.4-1.5-.6-3.2-.9-4.8-.8-1.6 0-3.1.3-4.6.9s-2.8 1.5-3.8 2.7c-1.1 1.3-2 2.8-2.6 4.4-.7 2-1 4.1-1 6.2-.3 3.7 1 7.4 3.4 10.3 2.5 2.4 5.9 3.6 9.4 3.4 3-.1 6-1 8.5-2.7l1.4 4.5c-1.4 1-3 1.8-4.6 2.3-2 .7-4 1-6.1 1.1-2.4 0-4.9-.4-7.2-1.3-2.2-.8-4.2-2.1-5.8-3.7-1.7-1.7-3-3.7-3.9-5.9-1.9-5.1-1.9-10.7 0-15.8.9-2.2 2.2-4.2 4-5.9 1.7-1.7 3.8-3 6.1-3.8 2.4-1 4.9-1.4 7.4-1.4zm120.9 0c2.3 0 4.7.4 6.8 1.3 2.1.8 4.1 2.1 5.7 3.7 1.7 1.7 3 3.7 3.9 5.9 1.9 5.2 1.9 10.9 0 16.1-.8 2.2-2.1 4.2-3.7 5.9-1.6 1.6-3.6 2.8-5.7 3.7-2.3.9-4.7 1.3-7.1 1.3-2.3 0-4.6-.4-6.8-1.3-2.1-.8-4-2.1-5.6-3.7-1.7-1.7-3-3.7-3.8-5.9-1.9-5.2-1.9-10.9 0-16.1.9-2.2 2.2-4.2 3.8-5.9 1.6-1.6 3.5-2.8 5.6-3.7 2.3-.9 4.6-1.3 6.9-1.3zm112.8-.2c2.3 0 4.6.4 6.7 1.3 1.9.8 3.6 2.1 4.9 3.8 1.4 1.8 2.3 3.9 2.6 6.2.5 2.8.5 5.7 0 8.5h-24.9c.3 8.6 4.4 12.9 12.4 12.9 1.9 0 3.8-.3 5.6-.9 1.6-.6 3.2-1.3 4.6-2.3l1.8 4.5c-1.5 1.2-3.3 2.2-5.2 2.7-2.3.8-4.7 1.1-7.2 1.1-5 .3-9.9-1.6-13.5-5.1-3.3-3.9-5-8.9-4.7-13.9 0-2.7.4-5.3 1.3-7.9.8-2.2 2-4.2 3.6-5.9 1.5-1.6 3.2-2.9 5.2-3.7 2.2-.9 4.5-1.3 6.8-1.3zm-277.2-15.1v52.2h-6.2v-52.2zm67.5 0v52.2h-6.3v-52.2zm22.5 16-15 16.2 16 20.1h-7.3l-15.4-19.3 15.2-16.9h6.5zm15-13.8v22.8h26.1v-22.8h6.7v50.1h-6.7v-22.2h-26.1v22.1h-6.7v-50zm-88.5 13.8v36h-6.2v-36zm147.9 4c-1.4 0-2.8.3-4.2.8s-2.6 1.4-3.6 2.5c-1.1 1.3-2 2.8-2.6 4.4-.7 2.1-1 4.3-.9 6.5-.1 2.2.3 4.4.9 6.5.5 1.6 1.4 3.1 2.6 4.4 1 1.1 2.2 1.9 3.6 2.5 1.3.5 2.8.8 4.2.8 1.5 0 2.9-.3 4.3-.8s2.7-1.4 3.7-2.5c1.2-1.3 2.1-2.8 2.6-4.4.7-2.1 1-4.3 1-6.5.1-2.2-.3-4.4-1-6.5-.6-1.6-1.5-3.1-2.6-4.4-1-1.1-2.3-2-3.7-2.5-1.4-.6-2.8-.8-4.3-.8zm113-.4c-2.5 0-5 1-6.7 2.8-2.1 2.3-3.3 5.2-3.6 8.3h18.7c.5-2.9-.2-6-1.9-8.4-1.7-1.8-4.1-2.8-6.5-2.7zm-261.2-15.7c.7.8 1.1 1.8 1.1 2.8s-.4 2-1.1 2.7c-.8.7-1.8 1.1-2.8 1.1-1.1.1-2.1-.3-2.9-1s-1.2-1.7-1.1-2.8c0-1 .3-2.1 1-2.8 1.7-1.5 4.2-1.5 5.8 0z" fill="#221f20"/></g></svg>